solid shade
facet normal -0.000314678830081516 0.00054503972173433 0.999999801954448
  outer loop
    vertex 33.1645015010433 -6.03861986827119 0.0569110098331069
    vertex 33.1641757659528 -5.52098195749697 0.0566287740523769
    vertex 33.1302644682206 -5.77982236064516 0.0567591812121225
  endloop
endfacet
facet normal -0.000314678830081516 0.00054503972173433 0.999999801954448
  outer loop
    vertex 33.1641757659528 -5.52098195749697 0.0566287740523769
    vertex 33.1645015010433 -6.03861986827119 0.0569110098331069
    vertex 33.2639243953407 -5.27973820454696 0.0565286753866133
  endloop
endfacet
facet normal -0.000314678830081516 0.00054503972173433 0.999999801954448
  outer loop
    vertex 33.2639243953407 -5.27973820454696 0.0565286753866133
    vertex 33.1645015010433 -6.03861986827119 0.0569110098331069
    vertex 33.2645536672135 -6.27973785791331 0.0570739130459814
  endloop
endfacet
facet normal -0.000314678830081516 0.00054503972173433 0.999999801954448
  outer loop
    vertex 33.2639243953407 -5.27973820454696 0.0565286753866133
    vertex 33.2645536672135 -6.27973785791331 0.0570739130459814
    vertex 33.4227126521336 -5.07253146488469 0.0564657067732602
  endloop
endfacet
facet normal -0.000314678830081516 0.00054503972173433 0.999999801954448
  outer loop
    vertex 33.4227126521336 -5.07253146488469 0.0564657067732602
    vertex 33.2645536672135 -6.27973785791331 0.0570739130459814
    vertex 86.3223068848918 -98.0450383424348 0.123785811808218
  endloop
endfacet
facet normal -0.000314678830081516 0.00054503972173433 0.999999801954448
  outer loop
    vertex 33.4227126521336 -5.07253146488469 0.0564657067732602
    vertex 86.3223068848918 -98.0450383424348 0.123785811808218
    vertex 33.6297193790413 -4.91348253539288 0.05644415941944
  endloop
endfacet
facet normal -0.000314678830081516 0.00054503972173433 0.999999801954448
  outer loop
    vertex 33.6297193790413 -4.91348253539288 0.05644415941944
    vertex 86.3223068848918 -98.0450383424348 0.123785811808218
    vertex 37.9582721465625 -2.41075783243769 0.0564421789641758
  endloop
endfacet
facet normal -0.000314678830081516 0.00054503972173433 0.999999801954448
  outer loop
    vertex 37.9582721465625 -2.41075783243769 0.0564421789641758
    vertex 86.3223068848918 -98.0450383424348 0.123785811808218
    vertex 38.8021852539373 -2.06057514077661 0.0565168770914406
  endloop
endfacet
facet normal -0.000314678830081516 0.00054503972173433 0.999999801954448
  outer loop
    vertex 38.8021852539373 -2.06057514077661 0.0565168770914406
    vertex 86.3223068848918 -98.0450383424348 0.123785811808218
    vertex 39.7079766408748 -1.94074538240849 0.0567365985307094
  endloop
endfacet
facet normal -0.000314678830081516 0.00054503972173433 0.999999801954448
  outer loop
    vertex 39.7079766408748 -1.94074538240849 0.0567365985307094
    vertex 86.3223068848918 -98.0450383424348 0.123785811808218
    vertex 40.6139181212457 -2.05943475733823 0.0570863696290369
  endloop
endfacet
facet normal -0.000314678830081516 0.00054503972173433 0.999999801954448
  outer loop
    vertex 40.6139181212457 -2.05943475733823 0.0570863696290369
    vertex 86.3223068848918 -98.0450383424348 0.123785811808218
    vertex 41.4582712803022 -2.4085547808076 0.0575423540640721
  endloop
endfacet
facet normal -0.000314678830081516 0.00054503972173433 0.999999801954448
  outer loop
    vertex 41.4582712803022 -2.4085547808076 0.0575423540640721
    vertex 86.3223068848918 -98.0450383424348 0.123785811808218
    vertex 42.1834948456141 -2.96431350016548 0.0580734772501337
  endloop
endfacet
facet normal -0.000314678830081516 0.00054503972173433 0.999999801954448
  outer loop
    vertex 42.1834948456141 -2.96431350016548 0.0580734772501337
    vertex 86.3223068848918 -98.0450383424348 0.123785811808218
    vertex 42.7401660296942 -3.6888368771221 0.0586435440197665
  endloop
endfacet
facet normal -0.000314678830081516 0.00054503972173433 0.999999801954448
  outer loop
    vertex 42.7401660296942 -3.6888368771221 0.0586435440197665
    vertex 86.3223068848918 -98.0450383424348 0.123785811808218
    vertex 93.2951950389914 -91.1255854519964 0.122208655104548
  endloop
endfacet
facet normal -0.000314678830081516 0.00054503972173433 0.999999801954448
  outer loop
    vertex 93.2951950389914 -91.1255854519964 0.122208655104548
    vertex 86.3223068848918 -98.0450383424348 0.123785811808218
    vertex 86.481355794629 -98.2520450215654 0.123948688028068
  endloop
endfacet
facet normal -0.000314678830081516 0.00054503972173433 0.999999801954448
  outer loop
    vertex 93.2951950389914 -91.1255854519964 0.122208655104548
    vertex 86.481355794629 -98.2520450215654 0.123948688028068
    vertex 86.6885625275753 -98.4108332270961 0.124100437509818
  endloop
endfacet
facet normal -0.000314678830081516 0.00054503972173433 0.999999801954448
  outer loop
    vertex 93.2951950389914 -91.1255854519964 0.122208655104548
    vertex 86.6885625275753 -98.4108332270961 0.124100437509818
    vertex 86.9298062873056 -98.5105818052304 0.12423071877696
  endloop
endfacet
facet normal -0.000314678830081516 0.00054503972173433 0.999999801954448
  outer loop
    vertex 93.2951950389914 -91.1255854519964 0.122208655104548
    vertex 86.9298062873056 -98.5105818052304 0.12423071877696
    vertex 87.1886467102689 -98.5444930552102 0.12433065337647
  endloop
endfacet
facet normal -0.000314678830081516 0.00054503972173433 0.999999801954448
  outer loop
    vertex 93.2951950389914 -91.1255854519964 0.122208655104548
    vertex 87.1886467102689 -98.5444930552102 0.12433065337647
    vertex 87.4474442493937 -98.5102559813908 0.124393430930478
  endloop
endfacet
facet normal -0.000314678830081516 0.00054503972173433 0.999999801954448
  outer loop
    vertex 93.2951950389914 -91.1255854519964 0.122208655104548
    vertex 87.4474442493937 -98.5102559813908 0.124393430930478
    vertex 87.6885622800721 -98.4102037837733 0.124414773252567
  endloop
endfacet
facet normal -0.000314678830081516 0.00054503972173433 0.999999801954448
  outer loop
    vertex 93.2951950389914 -91.1255854519964 0.122208655104548
    vertex 87.6885622800721 -98.4102037837733 0.124414773252567
    vertex 92.0171150475934 -95.9074790808181 0.124412792797449
  endloop
endfacet
facet normal -0.000314678830081516 0.00054503972173433 0.999999801954448
  outer loop
    vertex 93.2951950389914 -91.1255854519964 0.122208655104548
    vertex 92.0171150475934 -95.9074790808181 0.124412792797449
    vertex 92.7416385917704 -95.3508078275966 0.124337377058689
  endloop
endfacet
facet normal -0.000314678830081516 0.00054503972173433 0.999999801954448
  outer loop
    vertex 93.2951950389914 -91.1255854519964 0.122208655104548
    vertex 92.7416385917704 -95.3508078275966 0.124337377058689
    vertex 93.2973974905459 -94.6255842387788 0.124116986912072
  endloop
endfacet
facet normal -0.000314678830081516 0.00054503972173433 0.999999801954448
  outer loop
    vertex 93.2951950389914 -91.1255854519964 0.122208655104548
    vertex 93.2973974905459 -94.6255842387788 0.124116986912072
    vertex 93.6453776205869 -91.9694984157439 0.122778816349398
  endloop
endfacet
facet normal -0.000314678830081516 0.00054503972173433 0.999999801954448
  outer loop
    vertex 93.6453776205869 -91.9694984157439 0.122778816349398
    vertex 93.2973974905459 -94.6255842387788 0.124116986912072
    vertex 93.6465176934034 -93.7812311034539 0.123766641581786
  endloop
endfacet
facet normal -0.000314678830081516 0.00054503972173433 0.999999801954448
  outer loop
    vertex 93.6453776205869 -91.9694984157439 0.122778816349398
    vertex 93.6465176934034 -93.7812311034539 0.123766641581786
    vertex 93.7652072354663 -92.8752896924348 0.123310216523204
  endloop
endfacet
facet normal -7.11929366348205e-15 -0.000629357660134342 0.999999801954448
  outer loop
    vertex 3.92610406792586 -150.520474277798 0.0296130397915804
    vertex 4.02391368074085 -35.2263174950561 0.102174314902049
    vertex 3.85435729467049 -36.5205194321791 0.101359798837846
  endloop
endfacet
facet normal -7.11929366348205e-15 -0.000629357660134342 0.999999801954448
  outer loop
    vertex 4.02391368074085 -35.2263174950561 0.102174314902049
    vertex 3.92610406792586 -150.520474277798 0.0296130397915804
    vertex 4.09728935148239 -151.814461766541 0.028798658692304
  endloop
endfacet
facet normal -7.11929366348205e-15 -0.000629357660134342 0.999999801954448
  outer loop
    vertex 4.02391368074085 -35.2263174950561 0.102174314902049
    vertex 4.09728935148239 -151.814461766541 0.028798658692304
    vertex 4.52265674893259 -34.0200988327983 0.102933458007282
  endloop
endfacet
facet normal -7.11929366348205e-15 -0.000629357660134342 0.999999801954448
  outer loop
    vertex 4.52265674893259 -34.0200988327983 0.102933458007282
    vertex 4.09728935148239 -151.814461766541 0.028798658692304
    vertex 4.59755031048857 -153.020051697962 0.0280399112836011
  endloop
endfacet
facet normal -7.11929366348205e-15 -0.000629357660134342 0.999999801954448
  outer loop
    vertex 4.52265674893259 -34.0200988327983 0.102933458007282
    vertex 4.59755031048857 -153.020051697962 0.0280399112836011
    vertex 5.31659798336048 -32.984065253868 0.103585493805457
  endloop
endfacet
facet normal -7.11929366348205e-15 -0.000629357660134342 0.999999801954448
  outer loop
    vertex 5.31659798336048 -32.984065253868 0.103585493805457
    vertex 4.59755031048857 -153.020051697962 0.0280399112836011
    vertex 5.39279498730853 -154.055085110565 0.0273885049479155
  endloop
endfacet
facet normal -7.11929366348205e-15 -0.000629357660134342 0.999999801954448
  outer loop
    vertex 5.31659798336048 -32.984065253868 0.103585493805457
    vertex 5.39279498730853 -154.055085110565 0.0273885049479155
    vertex 6.351631600948 -32.1888207345428 0.104085987134421
  endloop
endfacet
facet normal -7.11929366348205e-15 -0.000629357660134342 0.999999801954448
  outer loop
    vertex 6.351631600948 -32.1888207345428 0.104085987134421
    vertex 5.39279498730853 -154.055085110565 0.0273885049479155
    vertex 6.42882877142067 -154.849026187757 0.0268888319503595
  endloop
endfacet
facet normal -7.11929366348205e-15 -0.000629357660134342 0.999999801954448
  outer loop
    vertex 6.351631600948 -32.1888207345428 0.104085987134421
    vertex 6.42882877142067 -154.849026187757 0.0268888319503595
    vertex 7.55722177113065 -31.6885598746111 0.104400830201018
  endloop
endfacet
facet normal -7.11929366348205e-15 -0.000629357660134342 0.999999801954448
  outer loop
    vertex 7.55722177113065 -31.6885598746111 0.104400830201018
    vertex 6.42882877142067 -154.849026187757 0.0268888319503595
    vertex 7.63504767256481 -155.347769157174 0.0265749441798161
  endloop
endfacet
facet normal -7.11929366348205e-15 -0.000629357660134342 0.999999801954448
  outer loop
    vertex 7.55722177113065 -31.6885598746111 0.104400830201018
    vertex 7.63504767256481 -155.347769157174 0.0265749441798161
    vertex 8.85120951614203 -31.517374624957 0.104508566970548
  endloop
endfacet
facet normal -7.11929366348205e-15 -0.000629357660134342 0.999999801954448
  outer loop
    vertex 8.85120951614203 -31.517374624957 0.104508566970548
    vertex 7.63504767256481 -155.347769157174 0.0265749441798161
    vertex 8.92924986599889 -155.517325509665 0.0264682325694467
  endloop
endfacet
facet normal -7.11929366348205e-15 -0.000629357660134342 0.999999801954448
  outer loop
    vertex 8.85120951614203 -31.517374624957 0.104508566970548
    vertex 8.92924986599889 -155.517325509665 0.0264682325694467
    vertex 10.8512091200511 -31.516115909886 0.104509359152746
  endloop
endfacet
facet normal -7.11929366348205e-15 -0.000629357660134342 0.999999801954448
  outer loop
    vertex 10.8512091200511 -31.516115909886 0.104509359152746
    vertex 8.92924986599889 -155.517325509665 0.0264682325694467
    vertex 10.9292494699078 -155.516066794594 0.0264690247516279
  endloop
endfacet
facet normal -7.11929366348205e-15 -0.000629357660134342 0.999999801954448
  outer loop
    vertex 10.8512091200511 -31.516115909886 0.104509359152746
    vertex 10.9292494699078 -155.516066794594 0.0264690247516279
    vertex 11.1100495587378 -31.550027180384 0.104488016830776
  endloop
endfacet
facet normal -7.11929366348205e-15 -0.000629357660134342 0.999999801954448
  outer loop
    vertex 11.1100495587378 -31.550027180384 0.104488016830776
    vertex 10.9292494699078 -155.516066794594 0.0264690247516279
    vertex 11.1880470189101 -155.481829744663 0.0264905721055045
  endloop
endfacet
facet normal -7.11929366348205e-15 -0.000629357660134342 0.999999801954448
  outer loop
    vertex 11.1100495587378 -31.550027180384 0.104488016830776
    vertex 11.1880470189101 -155.481829744663 0.0264905721055045
    vertex 11.3512933389666 -31.6497757742677 0.104425239276666
  endloop
endfacet
facet normal -7.11929366348205e-15 -0.000629357660134342 0.999999801954448
  outer loop
    vertex 11.3512933389666 -31.6497757742677 0.104425239276666
    vertex 11.1880470189101 -155.481829744663 0.0264905721055045
    vertex 11.4291650529464 -155.381777572677 0.026553540718914
  endloop
endfacet
facet normal -7.11929366348205e-15 -0.000629357660134342 0.999999801954448
  outer loop
    vertex 11.3512933389666 -31.6497757742677 0.104425239276666
    vertex 11.4291650529464 -155.381777572677 0.026553540718914
    vertex 11.5585000957891 -31.8085639897059 0.104325304677088
  endloop
endfacet
facet normal -7.11929366348205e-15 -0.000629357660134342 0.999999801954448
  outer loop
    vertex 11.5585000957891 -31.8085639897059 0.104325304677088
    vertex 11.4291650529464 -155.381777572677 0.026553540718914
    vertex 11.6361717764639 -155.222728668812 0.0266536393847509
  endloop
endfacet
facet normal -7.11929366348205e-15 -0.000629357660134342 0.999999801954448
  outer loop
    vertex 11.5585000957891 -31.8085639897059 0.104325304677088
    vertex 11.6361717764639 -155.222728668812 0.0266536393847509
    vertex 11.7175490311531 -32.0155706722267 0.10419502340998
  endloop
endfacet
facet normal -7.11929366348205e-15 -0.000629357660134342 0.999999801954448
  outer loop
    vertex 11.7175490311531 -32.0155706722267 0.10419502340998
    vertex 11.6361717764639 -155.222728668812 0.0266536393847509
    vertex 11.7949600233496 -155.015521953026 0.026784046544395
  endloop
endfacet
facet normal -7.11929366348205e-15 -0.000629357660134342 0.999999801954448
  outer loop
    vertex 11.7175490311531 -32.0155706722267 0.10419502340998
    vertex 11.7949600233496 -155.015521953026 0.026784046544395
    vertex 11.8176012229543 -32.2566886585108 0.104043273928265
  endloop
endfacet
facet normal -7.11929366348205e-15 -0.000629357660134342 0.999999801954448
  outer loop
    vertex 11.8176012229543 -32.2566886585108 0.104043273928265
    vertex 11.7949600233496 -155.015521953026 0.026784046544395
    vertex 11.8947086369879 -154.774278220574 0.0269358751654245
  endloop
endfacet
facet normal -7.11929366348205e-15 -0.000629357660134342 0.999999801954448
  outer loop
    vertex 11.8176012229543 -32.2566886585108 0.104043273928265
    vertex 11.8947086369879 -154.774278220574 0.0269358751654245
    vertex 11.8518382796655 -32.5154861562594 0.103880397708419
  endloop
endfacet
facet normal -7.11929366348205e-15 -0.000629357660134342 0.999999801954448
  outer loop
    vertex 11.8518382796655 -32.5154861562594 0.103880397708419
    vertex 11.8947086369879 -154.774278220574 0.0269358751654245
    vertex 11.928619914202 -154.51543783315 0.0270987783782032
  endloop
endfacet
facet normal 1.69026614878809e-06 -0.000627899309663613 0.999999802869781
  outer loop
    vertex 11.603175657749 -31.2128680987733 0.104700210523461
    vertex 15.22856247117 -31.0628148446056 0.104794647707165
    vertex 11.2402691458709 -31.0628148446056 0.104794647707165
  endloop
endfacet
facet normal 1.69026614878809e-06 -0.000627899309663613 0.999999802869781
  outer loop
    vertex 15.22856247117 -31.0628148446056 0.104794647707165
    vertex 11.603175657749 -31.2128680987733 0.104700210523461
    vertex 11.914879782451 -31.4517355105564 0.104549877458257
  endloop
endfacet
facet normal 1.69026614878809e-06 -0.000627899309663613 0.999999802869781
  outer loop
    vertex 15.22856247117 -31.0628148446056 0.104794647707165
    vertex 11.914879782451 -31.4517355105564 0.104549877458257
    vertex 12.1541393989938 -31.7631386605893 0.104353893461643
  endloop
endfacet
facet normal 1.69026614878809e-06 -0.000627899309663613 0.999999802869781
  outer loop
    vertex 15.22856247117 -31.0628148446056 0.104794647707165
    vertex 12.1541393989938 -31.7631386605893 0.104353893461643
    vertex 12.3046493599052 -32.1258559388151 0.104125614518912
  endloop
endfacet
facet normal 1.69026614878809e-06 -0.000627899309663613 0.999999802869781
  outer loop
    vertex 15.22856247117 -31.0628148446056 0.104794647707165
    vertex 12.3046493599052 -32.1258559388151 0.104125614518912
    vertex 12.3518175555024 -32.4823997590643 0.103901220890073
  endloop
endfacet
facet normal 1.69026614878809e-06 -0.000627899309663613 0.999999802869781
  outer loop
    vertex 15.22856247117 -31.0628148446056 0.104794647707165
    vertex 12.3518175555024 -32.4823997590643 0.103901220890073
    vertex 12.6153253379675 -32.5185783409366 0.103878765857528
  endloop
endfacet
facet normal 1.69026614878809e-06 -0.000627899309663613 0.999999802869781
  outer loop
    vertex 15.22856247117 -31.0628148446056 0.104794647707165
    vertex 12.6153253379675 -32.5185783409366 0.103878765857528
    vertex 12.8811384659045 -32.5279923035647 0.103872922874574
  endloop
endfacet
facet normal 1.69026614878809e-06 -0.000627899309663613 0.999999802869781
  outer loop
    vertex 15.22856247117 -31.0628148446056 0.104794647707165
    vertex 12.8811384659045 -32.5279923035647 0.103872922874574
    vertex 13.1465454264632 -32.5105456167758 0.103883751544449
  endloop
endfacet
facet normal 1.69026614878809e-06 -0.000627899309663613 0.999999802869781
  outer loop
    vertex 15.22856247117 -31.0628148446056 0.104794647707165
    vertex 13.1465454264632 -32.5105456167758 0.103883751544449
    vertex 13.6653431276533 -32.3960543625522 0.103954813059486
  endloop
endfacet
facet normal 1.69026614878809e-06 -0.000627899309663613 0.999999802869781
  outer loop
    vertex 15.22856247117 -31.0628148446056 0.104794647707165
    vertex 13.6653431276533 -32.3960543625522 0.103954813059486
    vertex 13.9134417044086 -32.3001777002148 0.104014321018662
  endloop
endfacet
facet normal 1.69026614878809e-06 -0.000627899309663613 0.999999802869781
  outer loop
    vertex 15.22856247117 -31.0628148446056 0.104794647707165
    vertex 13.9134417044086 -32.3001777002148 0.104014321018662
    vertex 14.1506037704638 -32.1797642850613 0.104089058253131
  endloop
endfacet
facet normal 1.69026614878809e-06 -0.000627899309663613 0.999999802869781
  outer loop
    vertex 15.22856247117 -31.0628148446056 0.104794647707165
    vertex 14.1506037704638 -32.1797642850613 0.104089058253131
    vertex 14.3744100773991 -32.0360424331084 0.104178262381541
  endloop
endfacet
facet normal 1.69026614878809e-06 -0.000627899309663613 0.999999802869781
  outer loop
    vertex 15.22856247117 -31.0628148446056 0.104794647707165
    vertex 14.3744100773991 -32.0360424331084 0.104178262381541
    vertex 14.5825776165387 -31.8704782256271 0.104281023448308
  endloop
endfacet
facet normal 1.69026614878809e-06 -0.000627899309663613 0.999999802869781
  outer loop
    vertex 15.22856247117 -31.0628148446056 0.104794647707165
    vertex 14.5825776165387 -31.8704782256271 0.104281023448308
    vertex 14.7729829075195 -31.6847605539059 0.104396293205907
  endloop
endfacet
facet normal 1.69026614878809e-06 -0.000627899309663613 0.999999802869781
  outer loop
    vertex 15.22856247117 -31.0628148446056 0.104794647707165
    vertex 14.7729829075195 -31.6847605539059 0.104396293205907
    vertex 15.0929385843275 -31.2606289673867 0.104659539803364
  endloop
endfacet
facet normal -0.00392752262110461 0.00175950719664742 0.999990739307363
  outer loop
    vertex 28.4671579449251 -9.2126368841346 0.11834411100993
    vertex -8.50740108545331 -24.9999999348272 0.000902585326658175
    vertex 15.22856247117 -31.0628148446056 0.104794647707165
  endloop
endfacet
facet normal -0.00310716358491899 -0.000161835376214791 0.999995159660169
  outer loop
    vertex 28.4671579449251 -9.2126368841346 0.11834411100993
    vertex -10.1 5.63993296509579e-15 0.0
    vertex -8.50740108545331 -24.9999999348272 0.000902585326658175
  endloop
endfacet
facet normal -0.0 -0.0 1.0
  outer loop
    vertex 2.27564530374862 5.51158809544102e-15 0.0
    vertex -9.24814565722671 6.47047612756303 0.0
    vertex -10.1 5.63993296509579e-15 0.0
  endloop
endfacet
facet normal -0.0 -0.0 1.0
  outer loop
    vertex -9.24814565722671 6.47047612756303 0.0
    vertex 2.27564530374862 5.51158809544102e-15 0.0
    vertex -6.75063509461096 12.5 0.0
  endloop
endfacet
facet normal -0.0 -0.0 1.0
  outer loop
    vertex -6.75063509461096 12.5 0.0
    vertex 2.27564530374862 5.51158809544102e-15 0.0
    vertex -2.77766952966368 17.6776695296637 0.0
  endloop
endfacet
facet normal -0.0 -0.0 1.0
  outer loop
    vertex -2.77766952966368 17.6776695296637 0.0
    vertex 2.27564530374862 5.51158809544102e-15 0.0
    vertex 2.40000000000001 21.650635094611 0.0
  endloop
endfacet
facet normal -0.0 -0.0 1.0
  outer loop
    vertex 2.40000000000001 21.650635094611 0.0
    vertex 2.27564530374862 5.51158809544102e-15 0.0
    vertex 36.550635094611 12.5 0.0
  endloop
endfacet
facet normal -0.0 -0.0 1.0
  outer loop
    vertex 2.40000000000001 21.650635094611 0.0
    vertex 36.550635094611 12.5 0.0
    vertex 8.42952387243699 24.1481456572267 0.0
  endloop
endfacet
facet normal -0.0 -0.0 1.0
  outer loop
    vertex 8.42952387243699 24.1481456572267 0.0
    vertex 36.550635094611 12.5 0.0
    vertex 14.9 25.0 0.0
  endloop
endfacet
facet normal -0.0 -0.0 1.0
  outer loop
    vertex 14.9 25.0 0.0
    vertex 36.550635094611 12.5 0.0
    vertex 21.370476127563 24.1481456572267 0.0
  endloop
endfacet
facet normal -0.0 -0.0 1.0
  outer loop
    vertex 21.370476127563 24.1481456572267 0.0
    vertex 36.550635094611 12.5 0.0
    vertex 27.4 21.650635094611 0.0
  endloop
endfacet
facet normal -0.0 -0.0 1.0
  outer loop
    vertex 27.4 21.650635094611 0.0
    vertex 36.550635094611 12.5 0.0
    vertex 32.5776695296637 17.6776695296637 0.0
  endloop
endfacet
facet normal 0.00263492932513154 -0.00722497405748218 0.999970428011409
  outer loop
    vertex 33.3623483745919 -3.13475547879062e-14 -0.0819136878936656
    vertex 36.550635094611 12.5 0.0
    vertex 2.27564530374862 5.51158809544102e-15 0.0
  endloop
endfacet
facet normal 0.00263492932513154 -0.00722497405748218 0.999970428011409
  outer loop
    vertex 36.550635094611 12.5 0.0
    vertex 33.3623483745919 -3.13475547879062e-14 -0.0819136878936656
    vertex 39.1699066928829 -3.82335092543363e-14 -0.0972166461528492
  endloop
endfacet
facet normal 0.00263492932513154 -0.00722497405748218 0.999970428011409
  outer loop
    vertex 36.550635094611 12.5 0.0
    vertex 39.1699066928829 -3.82335092543363e-14 -0.0972166461528492
    vertex 44.9774650111739 -4.51194637207664e-14 -0.112519604412033
  endloop
endfacet
facet normal 0.0026337665468959 0.030570365500629 0.99952914716227
  outer loop
    vertex 33.3623483745919 -3.13475547879062e-14 -0.0819136878936656
    vertex 2.27564530374862 5.51158809544102e-15 0.0
    vertex 33.3623483745919 -4.51387822017888 0.0561422231400062
  endloop
endfacet
facet normal 0.00733945127585557 0.00249402154003722 0.999969955704434
  outer loop
    vertex 123.071015245589 -117.540242241941 -0.112519604412033
    vertex 106.973196232346 -117.540242241941 0.00563310369809238
    vertex 123.071015245589 -130.841590236346 -0.0793447592876015
  endloop
endfacet
facet normal 0.00262306600321764 0.0950585120580737 0.995468230939616
  outer loop
    vertex 39.1699066928829 -3.82335092543363e-14 -0.0972166461528492
    vertex 33.3623483745919 -3.13475547879062e-14 -0.0819136878936656
    vertex 38.6766452699823 -1.59323015713992 0.0562226506780537
  endloop
endfacet
facet normal 0.0376708834713849 0.0297294828153178 0.99884786749035
  outer loop
    vertex 44.0586177207545 -1.71073291530531 -0.0269480205958621
    vertex 42.525457540522 -2.62192013440054 0.0579944676704542
    vertex 43.139770430335 -3.42146583061058 0.0586235632203087
  endloop
endfacet
facet normal 0.0415795396004887 0.0276253800620125 0.998753212892475
  outer loop
    vertex 46.7194645835839 -2.62192013440054 -0.112519604412033
    vertex 44.0586177207545 -1.71073291530531 -0.0269480205958621
    vertex 43.139770430335 -3.42146583061058 0.0586235632203087
  endloop
endfacet
facet normal 0.0415795396004887 0.0276253800620125 0.998753212892475
  outer loop
    vertex 44.0586177207545 -1.71073291530531 -0.0269480205958621
    vertex 46.7194645835839 -2.62192013440054 -0.112519604412033
    vertex 44.9774650111739 -4.51194637207664e-14 -0.112519604412033
  endloop
endfacet
facet normal 0.037057332028215 0.0228219739353076 0.999052506952786
  outer loop
    vertex 74.1120051210967 -48.1657021740696 -0.0881920173627434
    vertex 56.5969898947428 -19.0446341665903 -0.103747276175092
    vertex 60.4807735370473 -33.4133570111866 0.0804271861318292
  endloop
endfacet
facet normal -0.0134687143814165 0.0999855568685363 0.994897724467495
  outer loop
    vertex 39.7076721280894 -1.45683263662944 0.0564727509864234
    vertex 39.1699066928829 -3.82335092543363e-14 -0.0972166461528492
    vertex 38.6766452699823 -1.59323015713992 0.0562226506780537
  endloop
endfacet
facet normal 0.00262018948810198 0.105869528293826 0.994376577351805
  outer loop
    vertex 44.9774650111739 -4.51194637207664e-14 -0.112519604412033
    vertex 39.1699066928829 -3.82335092543363e-14 -0.0972166461528492
    vertex 39.7076721280894 -1.45683263662944 0.0564727509864234
  endloop
endfacet
facet normal 0.00375387884742181 0.00249407114323983 0.999989843949793
  outer loop
    vertex 133.520112890109 -133.267398513616 -0.112519604412033
    vertex 123.071015245589 -117.540242241941 -0.112519604412033
    vertex 123.071015245589 -130.841590236346 -0.0793447592876015
  endloop
endfacet
facet normal -0.00219986168000562 -0.00294913120508221 0.999993231593956
  outer loop
    vertex 16.1032542039857 -171.634585722994 0.0
    vertex 4.16095994264788 -153.272483709599 0.0278810412319457
    vertex 0.0720323281257231 -159.67632810882 0.0
  endloop
endfacet
facet normal -0.00753707659620317 -0.00642027046476766 0.999950985100541
  outer loop
    vertex 16.1032542039857 -171.634585722994 0.0
    vertex 5.03641530064665 -154.411913589715 0.0271639321667296
    vertex 4.16095994264788 -153.272483709599 0.0278810412319457
  endloop
endfacet
facet normal -0.00143104948867506 -0.00249676783632221 0.999995859115293
  outer loop
    vertex 16.1032542039857 -171.634585722994 0.0
    vertex 6.17694645263825 -155.285933863251 0.0266138607035644
    vertex 5.03641530064665 -154.411913589715 0.0271639321667296
  endloop
endfacet
facet normal -0.000504377511035281 -0.00162798794938667 0.999998547628227
  outer loop
    vertex 16.1032542039857 -171.634585722994 0.0
    vertex 12.6085775041411 -154.167935276277 0.0272063835308002
    vertex 12.4627146140304 -154.2890758424 0.0271655636684736
  endloop
endfacet
facet normal -0.000580507197774099 -0.00164165407016683 0.999998483990504
  outer loop
    vertex 26.4007593947672 -164.888775115086 0.0170520891745407
    vertex 14.4286404403194 -154.547894872809 0.0270783512876263
    vertex 16.1032542039857 -171.634585722994 0.0
  endloop
endfacet
facet normal 0.0023527658154372 -0.00354119723146066 0.999990962166752
  outer loop
    vertex 133.520112890109 -133.267398513616 -0.112519604412033
    vertex 123.071015245589 -130.841590236346 -0.0793447592876015
    vertex 129.355506686558 -136.034356259833 -0.112519604412033
  endloop
endfacet
facet normal -0.0 -0.0 1.0
  outer loop
    vertex 129.824111790006 -136.234880172009 -0.112519604412033
    vertex 133.520112890109 -133.267398513616 -0.112519604412033
    vertex 129.355506686558 -136.034356259833 -0.112519604412033
  endloop
endfacet
facet normal -0.0 -0.0 1.0
  outer loop
    vertex 133.520112890109 -133.267398513616 -0.112519604412033
    vertex 129.824111790006 -136.234880172009 -0.112519604412033
    vertex 130.321061526756 -136.348200697406 -0.112519604412033
  endloop
endfacet
facet normal -0.0 -0.0 1.0
  outer loop
    vertex 133.520112890109 -133.267398513616 -0.112519604412033
    vertex 130.321061526756 -136.348200697406 -0.112519604412033
    vertex 130.83027326042 -136.370650477597 -0.112519604412033
  endloop
endfacet
facet normal -0.0 -0.0 1.0
  outer loop
    vertex 133.520112890109 -133.267398513616 -0.112519604412033
    vertex 130.83027326042 -136.370650477597 -0.112519604412033
    vertex 131.335267523256 -136.301502977028 -0.112519604412033
  endloop
endfacet
facet normal -0.0 -0.0 1.0
  outer loop
    vertex 133.520112890109 -133.267398513616 -0.112519604412033
    vertex 131.335267523256 -136.301502977028 -0.112519604412033
    vertex 131.819701336273 -136.142995995676 -0.112519604412033
  endloop
endfacet
facet normal -0.0 -0.0 1.0
  outer loop
    vertex 133.520112890109 -133.267398513616 -0.112519604412033
    vertex 131.819701336273 -136.142995995676 -0.112519604412033
    vertex 132.267897112199 -135.900259247789 -0.112519604412033
  endloop
endfacet
facet normal -0.0 -0.0 1.0
  outer loop
    vertex 133.520112890109 -133.267398513616 -0.112519604412033
    vertex 132.267897112199 -135.900259247789 -0.112519604412033
    vertex 132.665350024565 -135.581148350477 -0.112519604412033
  endloop
endfacet
facet normal -0.0 -0.0 1.0
  outer loop
    vertex 133.520112890109 -133.267398513616 -0.112519604412033
    vertex 132.665350024565 -135.581148350477 -0.112519604412033
    vertex 132.999197423092 -135.195990594708 -0.112519604412033
  endloop
endfacet
facet normal -0.0 -0.0 1.0
  outer loop
    vertex 133.520112890109 -133.267398513616 -0.112519604412033
    vertex 132.999197423092 -135.195990594708 -0.112519604412033
    vertex 133.258635103808 -134.757250726271 -0.112519604412033
  endloop
endfacet
facet normal -0.0 -0.0 1.0
  outer loop
    vertex 133.520112890109 -133.267398513616 -0.112519604412033
    vertex 133.258635103808 -134.757250726271 -0.112519604412033
    vertex 133.435266962288 -134.279127552913 -0.112519604412033
  endloop
endfacet
facet normal -0.0 -0.0 1.0
  outer loop
    vertex 133.520112890109 -133.267398513616 -0.112519604412033
    vertex 133.435266962288 -134.279127552913 -0.112519604412033
    vertex 133.523376714279 -133.777094432556 -0.112519604412033
  endloop
endfacet
facet normal 0.0100167649895093 0.0793942362547878 0.996792967304979
  outer loop
    vertex 44.9774650111739 -4.51194637207664e-14 -0.112519604412033
    vertex 39.7076721280894 -1.45683263662944 0.0564727509864234
    vertex 40.7388698316731 -1.59193210333805 0.0568708817279687
  endloop
endfacet
facet normal 0.0206529336205788 0.0512535984122276 0.998472095244861
  outer loop
    vertex 44.9774650111739 -4.51194637207664e-14 -0.112519604412033
    vertex 40.7388698316731 -1.59193210333805 0.0568708817279687
    vertex 41.6999639613692 -1.98932175187173 0.0573899109505671
  endloop
endfacet
facet normal 0.0285722687117403 0.0382392566633717 0.998860042603816
  outer loop
    vertex 44.9774650111739 -4.51194637207664e-14 -0.112519604412033
    vertex 41.6999639613692 -1.98932175187173 0.0573899109505671
    vertex 42.525457540522 -2.62192013440054 0.0579944676704542
  endloop
endfacet
facet normal 0.037670883471385 0.0297294828153177 0.99884786749035
  outer loop
    vertex 44.9774650111739 -4.51194637207664e-14 -0.112519604412033
    vertex 42.525457540522 -2.62192013440054 0.0579944676704542
    vertex 44.0586177207545 -1.71073291530531 -0.0269480205958621
  endloop
endfacet
facet normal 0.0191274811793219 -0.0020022170506688 0.999815048191723
  outer loop
    vertex 103.511163189034 -97.0457556821508 -0.0620823333743556
    vertex 94.249120029216 -92.8749850966825 0.123462327648354
    vertex 94.1140203722662 -93.9061827213257 0.123981858415479
  endloop
endfacet
facet normal 0.0260192432547412 0.0114720556140837 0.999595613696078
  outer loop
    vertex 103.511163189034 -97.0457556821508 -0.0620823333743556
    vertex 93.7262796877105 -90.9126606315126 0.122228255836448
    vertex 94.112722672033 -91.8439583640648 0.122857455644165
  endloop
endfacet
facet normal 0.0215775650275533 0.0034410848197942 0.999761255311859
  outer loop
    vertex 103.511163189034 -97.0457556821508 -0.0620823333743556
    vertex 94.112722672033 -91.8439583640648 0.122857455644165
    vertex 94.249120029216 -92.8749850966825 0.123462327648354
  endloop
endfacet
facet normal 0.00560912894295317 -0.00399454519660571 0.999976290359513
  outer loop
    vertex 94.2547126329093 -107.03118035113 0.072771984798045
    vertex 93.7166305195421 -94.8672768240089 0.124380642782781
    vertex 93.0840319327892 -95.6927704299176 0.124631504254532
  endloop
endfacet
facet normal 0.0101754352751561 -0.00379240062060145 0.999941037368951
  outer loop
    vertex 94.2547126329093 -107.03118035113 0.072771984798045
    vertex 94.1140203722662 -93.9061827213257 0.123981858415479
    vertex 93.7166305195421 -94.8672768240089 0.124380642782781
  endloop
endfacet
facet normal 0.0185596825533393 -0.00370205767854094 0.999820900437905
  outer loop
    vertex 103.511163189034 -97.0457556821508 -0.0620823333743556
    vertex 94.1140203722662 -93.9061827213257 0.123981858415479
    vertex 94.2547126329093 -107.03118035113 0.072771984798045
  endloop
endfacet
facet normal 0.00930766867229657 0.00487619706631344 0.999944793479149
  outer loop
    vertex 106.973196232346 -117.540242241941 0.00563310369809238
    vertex 103.511163189034 -97.0457556821508 -0.0620823333743556
    vertex 94.2547126329093 -107.03118035113 0.072771984798045
  endloop
endfacet
facet normal 0.00848589978682498 0.00563801833862621 0.999948099780194
  outer loop
    vertex 56.5969898947428 -19.0446341665903 -0.103747276175092
    vertex 123.071015245589 -117.540242241941 -0.112519604412033
    vertex 46.7194645835839 -2.62192013440054 -0.112519604412033
  endloop
endfacet
facet normal 0.00848589978682498 0.00563801833862621 0.999948099780194
  outer loop
    vertex 123.071015245589 -117.540242241941 -0.112519604412033
    vertex 56.5969898947428 -19.0446341665903 -0.103747276175092
    vertex 74.1120051210967 -48.1657021740696 -0.0881920173627434
  endloop
endfacet
facet normal 0.00848589978682498 0.00563801833862621 0.999948099780194
  outer loop
    vertex 123.071015245589 -117.540242241941 -0.112519604412033
    vertex 74.1120051210967 -48.1657021740696 -0.0881920173627434
    vertex 95.5684619415434 -83.8399468260307 -0.0691363251623831
  endloop
endfacet
facet normal 0.00848589978682498 0.00563801833862621 0.999948099780194
  outer loop
    vertex 123.071015245589 -117.540242241941 -0.112519604412033
    vertex 95.5684619415434 -83.8399468260307 -0.0691363251623831
    vertex 103.511163189034 -97.0457556821508 -0.0620823333743556
  endloop
endfacet
facet normal 0.00733939833709478 0.00454376612407036 0.999962743016688
  outer loop
    vertex 123.071015245589 -117.540242241941 -0.112519604412033
    vertex 103.511163189034 -97.0457556821508 -0.0620823333743556
    vertex 106.973196232346 -117.540242241941 0.00563310369809238
  endloop
endfacet
facet normal 0.00119901108606062 -0.00437024602661413 0.999989731608321
  outer loop
    vertex 84.5265170372311 -98.4678092762403 0.123784846105582
    vertex 84.4966708720952 -98.6640242051474 0.123784398333574
    vertex 84.5186258509036 -98.8612780284436 0.123784727716759
  endloop
endfacet
facet normal -1.50026646821305e-05 7.97585992177469e-18 0.99999999988746
  outer loop
    vertex 84.5908857781328 -99.0461282240486 0.123785811808218
    vertex 84.5265170372311 -98.4678092762403 0.123784846105582
    vertex 84.5186258509036 -98.8612780284436 0.123784727716759
  endloop
endfacet
facet normal -1.50026646821305e-05 7.97585992177469e-18 0.99999999988746
  outer loop
    vertex 84.5265170372311 -98.4678092762403 0.123784846105582
    vertex 84.5908857781328 -99.0461282240486 0.123785811808218
    vertex 84.6061303794805 -98.2860049648668 0.12378604051786
  endloop
endfacet
facet normal 0.00519247653294418 -0.000104438247811786 0.999986513549111
  outer loop
    vertex 94.2547126329093 -107.03118035113 0.072771984798045
    vertex 84.6061303794805 -98.2860049648668 0.12378604051786
    vertex 84.5908857781328 -99.0461282240486 0.123785811808218
  endloop
endfacet
facet normal 0.00305905167648663 -0.00245828702314901 0.999992299484227
  outer loop
    vertex 94.2547126329093 -107.03118035113 0.072771984798045
    vertex 84.7300853811363 -98.1310009344011 0.123787900173186
    vertex 84.6061303794805 -98.2860049648668 0.12378604051786
  endloop
endfacet
facet normal 0.00054810647852884 -0.00505923481221352 0.999987051777373
  outer loop
    vertex 94.2547126329093 -107.03118035113 0.072771984798045
    vertex 85.2720387325391 -97.9191455473151 0.123796030917591
    vertex 85.0747849092652 -97.9411005261259 0.123793071584623
  endloop
endfacet
facet normal -0.00101963532060629 -0.00660466729825901 0.999977669107512
  outer loop
    vertex 94.2547126329093 -107.03118035113 0.072771984798045
    vertex 85.4682536614242 -97.9489917124544 0.123798974664375
    vertex 85.2720387325391 -97.9191455473151 0.123796030917591
  endloop
endfacet
facet normal -0.081956598876215 -0.0848670886904764 0.993015958158703
  outer loop
    vertex 94.2547126329093 -107.03118035113 0.072771984798045
    vertex 86.1393930997211 -98.5944383873303 0.124027697607744
    vertex 85.4682536614242 -97.9489917124544 0.123798974664375
  endloop
endfacet
facet normal 0.000767868516757353 0.00109291394495818 0.999999107958127
  outer loop
    vertex 86.1393930997211 -98.5944383873303 0.124027697607744
    vertex 85.6500579727772 -98.0286050547127 0.123801702213496
    vertex 85.4682536614242 -97.9489917124544 0.123798974664375
  endloop
endfacet
facet normal 0.000767868516757353 0.00109291394495818 0.999999107958127
  outer loop
    vertex 85.6500579727772 -98.0286050547127 0.123801702213496
    vertex 86.1393930997211 -98.5944383873303 0.124027697607744
    vertex 85.9227024842501 -98.3124093889451 0.12380579260768
  endloop
endfacet
facet normal 0.00119901108606062 -0.00437024602661413 0.999989731608321
  outer loop
    vertex 85.9227024842501 -98.3124093889451 0.12380579260768
    vertex 85.8050620032254 -98.1525600563825 0.12380402768699
    vertex 85.6500579727772 -98.0286050547127 0.123801702213496
  endloop
endfacet
facet normal -0.020485955340789 -0.0257774855768474 0.999457776432357
  outer loop
    vertex 94.2547126329093 -107.03118035113 0.072771984798045
    vertex 86.4468698465082 -98.8300662560319 0.124252880623326
    vertex 86.1393930997211 -98.5944383873303 0.124027697607744
  endloop
endfacet
facet normal -0.00517079513703038 -0.0111996654609863 0.999923912290937
  outer loop
    vertex 94.2547126329093 -107.03118035113 0.072771984798045
    vertex 86.8048545768782 -98.9780844592306 0.124446206678031
    vertex 86.4468698465082 -98.8300662560319 0.124252880623326
  endloop
endfacet
facet normal -0.00139589267577099 -0.007707823133383 0.99996932000246
  outer loop
    vertex 94.2547126329093 -107.03118035113 0.072771984798045
    vertex 87.1889512230542 -99.0284058009893 0.124594500920772
    vertex 86.8048545768782 -98.9780844592306 0.124446206678031
  endloop
endfacet
facet normal 0.00054986102253896 -0.00598997154001732 0.999981908783257
  outer loop
    vertex 94.2547126329093 -107.03118035113 0.072771984798045
    vertex 87.5729842333487 -98.9776009650275 0.124687657343862
    vertex 87.1889512230542 -99.0284058009893 0.124594500920772
  endloop
endfacet
facet normal 0.0421467832301518 0.025094945516528 0.998796221645273
  outer loop
    vertex 60.4807735370473 -33.4133570111866 0.0804271861318292
    vertex 46.7194645835839 -2.62192013440054 -0.112519604412033
    vertex 43.139770430335 -3.42146583061058 0.0586235632203087
  endloop
endfacet
facet normal 0.0370573320282148 0.0228219739353075 0.999052506952786
  outer loop
    vertex 60.4807735370473 -33.4133570111866 0.0804271861318292
    vertex 56.5969898947428 -19.0446341665903 -0.103747276175092
    vertex 46.7194645835839 -2.62192013440054 -0.112519604412033
  endloop
endfacet
facet normal -0.0176723147136815 0.0305656974147341 0.999376519353047
  outer loop
    vertex 37.7453473789307 -1.97967326292508 0.0561402177737888
    vertex 33.3623483745919 -3.13475547879062e-14 -0.0819136878936656
    vertex 33.3623483745919 -4.51387822017888 0.0561422231400062
  endloop
endfacet
facet normal -0.0151159789406039 0.0362151884557658 0.999229686961802
  outer loop
    vertex 38.6766452699823 -1.59323015713992 0.0562226506780537
    vertex 33.3623483745919 -3.13475547879062e-14 -0.0819136878936656
    vertex 37.7453473789307 -1.97967326292508 0.0561402177737888
  endloop
endfacet
facet normal 0.0326050394959237 0.00703396696076973 0.99944356254281
  outer loop
    vertex 32.7318904075087 -6.87208602223689 0.0612730390783045
    vertex 32.6463516744709 -5.78012695639751 0.0566070700869977
    vertex 32.6113994084741 -7.02924831713628 0.0662772284203534
  endloop
endfacet
facet normal 0.0419541397386718 0.00429803498079096 0.999110292737539
  outer loop
    vertex 32.6463516744709 -5.78012695639751 0.0566070700869977
    vertex 32.7318904075087 -6.87208602223689 0.0612730390783045
    vertex 32.6971564495972 -6.16415991995045 0.0568323705383246
  endloop
endfacet
facet normal 0.0152953818291445 0.00702235542854714 0.999858358878364
  outer loop
    vertex 32.8334690184945 -6.4926626783971 0.0570543123140814
    vertex 32.6971564495972 -6.16415991995045 0.0568323705383246
    vertex 32.7318904075087 -6.87208602223689 0.0612730390783045
  endloop
endfacet
facet normal 0.00108693108326369 0.0176525564733757 0.99984359068345
  outer loop
    vertex 32.8334690184945 -6.4926626783971 0.0570543123140814
    vertex 32.7318904075087 -6.87208602223689 0.0612730390783045
    vertex 32.8076342159736 -6.68906665348154 0.0581272741491131
  endloop
endfacet
facet normal -0.0 0.0128447858507185 0.999917502335292
  outer loop
    vertex 28.4671579449251 -9.2126368841346 0.11834411100993
    vertex 2.27564530374862 5.51158809544102e-15 0.0
    vertex -10.1 5.63993296509579e-15 0.0
  endloop
endfacet
facet normal -0.00353382693341919 0.00279905047803031 0.999989838640186
  outer loop
    vertex 28.9758439804619 -8.53854389464884 0.118254898211984
    vertex 2.27564530374862 5.51158809544102e-15 0.0
    vertex 28.4671579449251 -9.2126368841346 0.11834411100993
  endloop
endfacet
facet normal -0.00297144486877777 0.00455994253490404 0.999985188610046
  outer loop
    vertex 29.2786160452091 -8.24345601221285 0.117808415385477
    vertex 2.27564530374862 5.51158809544102e-15 0.0
    vertex 28.9758439804619 -8.53854389464884 0.118254898211984
  endloop
endfacet
facet normal 0.000811609847489855 0.0171930110234393 0.999851859857951
  outer loop
    vertex 29.2786160452091 -8.24345601221285 0.117808415385477
    vertex 33.0803193111148 -4.73056886256369 0.0561715795774094
    vertex 2.27564530374862 5.51158809544102e-15 0.0
  endloop
endfacet
facet normal 0.000811609847489855 0.0171930110234393 0.999851859857951
  outer loop
    vertex 33.0803193111148 -4.73056886256369 0.0561715795774094
    vertex 29.2786160452091 -8.24345601221285 0.117808415385477
    vertex 29.4408056893864 -8.10777245881996 0.117486256016394
  endloop
endfacet
facet normal 0.000811609847489855 0.0171930110234393 0.999851859857951
  outer loop
    vertex 33.0803193111148 -4.73056886256369 0.0561715795774094
    vertex 29.4408056893864 -8.10777245881996 0.117486256016394
    vertex 29.6096502072022 -7.98046578140848 0.117099194817935
  endloop
endfacet
facet normal -0.00150238216951085 0.00209086913661036 0.999996685551542
  outer loop
    vertex 33.3623483745919 -4.51387822017888 0.0561422231400062
    vertex 2.27564530374862 5.51158809544102e-15 0.0
    vertex 33.0803193111148 -4.73056886256369 0.0561715795774094
  endloop
endfacet
facet normal -0.0199088294766609 0.0399901150103185 0.999001716320013
  outer loop
    vertex 33.0803193111148 -4.73056886256369 0.0561715795774094
    vertex 29.6096502072022 -7.98046578140848 0.117099194817935
    vertex 30.3427007946515 -7.56118669207812 0.114924183679364
  endloop
endfacet
facet normal 0.101018944904471 -0.0771121834830829 0.991891568634828
  outer loop
    vertex 33.0803193111148 -4.73056886256369 0.0561715795774094
    vertex 30.3427007946515 -7.56118669207812 0.114924183679364
    vertex 32.8446913663445 -5.03804561931681 0.0562650195159122
  endloop
endfacet
facet normal -0.0123266076520697 0.0354553617661289 0.999295237687954
  outer loop
    vertex 32.8446913663445 -5.03804561931681 0.0562650195159122
    vertex 30.3427007946515 -7.56118669207812 0.114924183679364
    vertex 31.5391524798701 -7.02924831713629 0.110809406717137
  endloop
endfacet
facet normal 0.0437613457244786 0.000225631526161405 0.999041987961866
  outer loop
    vertex 31.696179407011 -7.1498431875053 0.104287820196077
    vertex 32.8446913663445 -5.03804561931681 0.0562650195159122
    vertex 31.5391524798701 -7.02924831713629 0.110809406717137
  endloop
endfacet
facet normal 0.0437613457244786 0.000225631526161405 0.999041987961866
  outer loop
    vertex 32.8446913663445 -5.03804561931681 0.0562650195159122
    vertex 31.696179407011 -7.1498431875053 0.104287820196077
    vertex 31.8790411366727 -7.22565229222073 0.0966932718399856
  endloop
endfacet
facet normal 0.0437613457244786 0.000225631526161405 0.999041987961866
  outer loop
    vertex 32.8446913663445 -5.03804561931681 0.0562650195159122
    vertex 31.8790411366727 -7.22565229222073 0.0966932718399856
    vertex 32.69667308709 -5.39603033962518 0.0564135572186477
  endloop
endfacet
facet normal 0.0408524975545376 0.00478633679076484 0.999153724120409
  outer loop
    vertex 32.4543724813333 -7.1498431875053 0.0727988149414131
    vertex 32.69667308709 -5.39603033962518 0.0564135572186477
    vertex 32.2715107516716 -7.22565229222073 0.0803933632975047
  endloop
endfacet
facet normal 0.0435979036817695 0.000517964579404122 0.999049025076973
  outer loop
    vertex 32.69667308709 -5.39603033962518 0.0564135572186477
    vertex 32.4543724813333 -7.1498431875053 0.0727988149414131
    vertex 32.6463516744709 -5.78012695639751 0.0566070700869977
  endloop
endfacet
facet normal 0.0419541397386718 0.00429803498079096 0.999110292737539
  outer loop
    vertex 32.6463516744709 -5.78012695639751 0.0566070700869977
    vertex 32.4543724813333 -7.1498431875053 0.0727988149414131
    vertex 32.6113994084741 -7.02924831713628 0.0662772284203534
  endloop
endfacet
facet normal -0.00171465919463376 0.01233178425176 0.999922490516647
  outer loop
    vertex 8.81812311239466 -31.0173954481386 0.104823232757704
    vertex -8.50740108545331 -24.9999999348272 0.000902585326658175
    vertex 7.42638902552391 -31.201511834118 0.10470735767686
  endloop
endfacet
facet normal -0.0 -0.000629357657214245 0.99999980195445
  outer loop
    vertex 15.22856247117 -31.0628148446056 0.104794647707165
    vertex 10.8836661661384 -31.0160954827954 0.104824050901083
    vertex 11.2402691458709 -31.0628148446056 0.104794647707165
  endloop
endfacet
facet normal -0.00659389110746603 -0.000203686367748892 0.999978239319199
  outer loop
    vertex 7.42638902552391 -31.201511834118 0.10470735767686
    vertex -8.50740108545331 -24.9999999348272 0.000902585326658175
    vertex -8.10857423915678 -31.2606289673867 0.00225723081241431
  endloop
endfacet
facet normal -0.00665249538349159 0.0154027326727763 0.999859240159025
  outer loop
    vertex 7.42638902552391 -31.201511834118 0.10470735767686
    vertex -8.10857423915678 -31.2606289673867 0.00225723081241431
    vertex 6.09919953931758 -31.7522304531669 0.104360758626757
  endloop
endfacet
facet normal -0.00689719999828494 0.0083475833134628 0.999941371523855
  outer loop
    vertex 6.09919953931758 -31.7522304531669 0.104360758626757
    vertex -8.10857423915678 -31.2606289673867 0.00225723081241431
    vertex 4.95976943354279 -32.6276856377855 0.103809784091171
  endloop
endfacet
facet normal -0.00725483795426 0.00493024974382409 0.999961529241861
  outer loop
    vertex 4.95976943354279 -32.6276856377855 0.103809784091171
    vertex -8.10857423915678 -31.2606289673867 0.00225723081241431
    vertex 4.08574898691062 -33.7682165639001 0.103091982074056
  endloop
endfacet
facet normal -0.00774003024500394 0.00257098374686298 0.999966740434091
  outer loop
    vertex 4.08574898691062 -33.7682165639001 0.103091982074056
    vertex -8.10857423915678 -31.2606289673867 0.00225723081241431
    vertex 3.5367012484722 -35.0960979337125 0.102256269596708
  endloop
endfacet
facet normal -0.00880686827902021 -0.000488826602387831 0.999961099303202
  outer loop
    vertex -8.10857423915678 -31.2606289673867 0.00225723081241431
    vertex 3.35433676855306 -36.4880623925199 0.101380225928423
    vertex 3.5367012484722 -35.0960979337125 0.102256269596708
  endloop
endfacet
facet normal -0.00880686827902021 -0.000488826602387831 0.999961099303202
  outer loop
    vertex 3.35433676855306 -36.4880623925199 0.101380225928423
    vertex -8.10857423915678 -31.2606289673867 0.00225723081241431
    vertex -0.259011434562798 -154.480020428262 0.01115451203419
  endloop
endfacet
facet normal -0.00421376218943582 -0.000635516209888404 0.999990920122457
  outer loop
    vertex -0.259011434562798 -154.480020428262 0.01115451203419
    vertex 3.42612479208895 -150.553560674993 0.0295922166099274
    vertex 3.35433676855306 -36.4880623925199 0.101380225928423
  endloop
endfacet
facet normal -0.00421376218943582 -0.000635516209888404 0.999990920122457
  outer loop
    vertex 3.42612479208895 -150.553560674993 0.0295922166099274
    vertex -0.259011434562798 -154.480020428262 0.01115451203419
    vertex 3.61024121453158 -151.945294486237 0.0287163181016626
  endloop
endfacet
facet normal 0.00013967909448288 0.0176902028865139 0.999843506360663
  outer loop
    vertex -8.50740108545331 -24.9999999348272 0.000902585326658175
    vertex 10.8836661661384 -31.0160954827954 0.104824050901083
    vertex 15.22856247117 -31.0628148446056 0.104794647707165
  endloop
endfacet
facet normal 0.00013967909448288 0.0176902028865139 0.999843506360663
  outer loop
    vertex 10.8836661661384 -31.0160954827954 0.104824050901083
    vertex -8.50740108545331 -24.9999999348272 0.000902585326658175
    vertex 8.81812311239466 -31.0173954481386 0.104823232757704
  endloop
endfacet
facet normal 0.0415023331114889 0.00343336205348516 0.999132507914397
  outer loop
    vertex 32.0752759441721 -7.25150936607669 0.0885433175687451
    vertex 32.69667308709 -5.39603033962518 0.0564135572186477
    vertex 31.8790411366727 -7.22565229222073 0.0966932718399856
  endloop
endfacet
facet normal 0.0435979036817695 0.000517964579404122 0.999049025076973
  outer loop
    vertex 32.69667308709 -5.39603033962518 0.0564135572186477
    vertex 32.0752759441721 -7.25150936607669 0.0885433175687451
    vertex 32.2715107516716 -7.22565229222073 0.0803933632975047
  endloop
endfacet
facet normal 0.03092829238804 0.0186624580377089 0.999347363727924
  outer loop
    vertex 93.7262796877105 -90.9126606315126 0.122228255836448
    vertex 95.5684619415434 -83.8399468260307 -0.0691363251623831
    vertex 71.8368355747205 -53.0540764538776 0.0947056735356762
  endloop
endfacet
facet normal 0.03092829238804 0.0186624580377089 0.999347363727924
  outer loop
    vertex 95.5684619415434 -83.8399468260307 -0.0691363251623831
    vertex 93.7262796877105 -90.9126606315126 0.122228255836448
    vertex 103.511163189034 -97.0457556821508 -0.0620823333743556
  endloop
endfacet
facet normal 0.0349475858582256 0.0213973228511692 0.999160057657173
  outer loop
    vertex 71.8368355747205 -53.0540764538776 0.0947056735356762
    vertex 74.1120051210967 -48.1657021740696 -0.0881920173627434
    vertex 60.4807735370473 -33.4133570111866 0.0804271861318292
  endloop
endfacet
facet normal 0.0349475858582256 0.0213973228511692 0.999160057657173
  outer loop
    vertex 74.1120051210967 -48.1657021740696 -0.0881920173627434
    vertex 71.8368355747205 -53.0540764538776 0.0947056735356762
    vertex 95.5684619415434 -83.8399468260307 -0.0691363251623831
  endloop
endfacet
facet normal 0.00256665750631333 -0.00433660422681201 0.999987302985906
  outer loop
    vertex 94.2547126329093 -107.03118035113 0.072771984798045
    vertex 87.9014870477039 -98.8412883532859 0.124716734442953
    vertex 87.5729842333487 -98.9776009650275 0.124687657343862
  endloop
endfacet
facet normal 0.00256665750631333 -0.00433660422681201 0.999987302985906
  outer loop
    vertex 87.9014870477039 -98.8412883532859 0.124716734442953
    vertex 94.2547126329093 -107.03118035113 0.072771984798045
    vertex 92.284486052043 -96.307083396032 0.124714729076896
  endloop
endfacet
facet normal 0.00256665750631333 -0.00433660422681201 0.999987302985906
  outer loop
    vertex 92.284486052043 -96.307083396032 0.124714729076896
    vertex 94.2547126329093 -107.03118035113 0.072771984798045
    vertex 93.0840319327892 -95.6927704299176 0.124631504254532
  endloop
endfacet
facet normal 0.00198113230191105 -0.0036079708389775 0.999991528794733
  outer loop
    vertex 94.2547126329093 -107.03118035113 0.072771984798045
    vertex 84.889934713681 -98.0133604533633 0.123790298339122
    vertex 84.7300853811363 -98.1310009344011 0.123787900173186
  endloop
endfacet
facet normal 0.00198113230191105 -0.0036079708389775 0.999991528794733
  outer loop
    vertex 84.889934713681 -98.0133604533633 0.123790298339122
    vertex 94.2547126329093 -107.03118035113 0.072771984798045
    vertex 85.0747849092652 -97.9411005261259 0.123793071584623
  endloop
endfacet
facet normal -0.000341488545445746 -0.000903831281124833 0.999999533237185
  outer loop
    vertex 32.1344760798457 -183.592843337168 0.0
    vertex 26.4007593947672 -164.888775115086 0.0170520891745407
    vertex 16.1032542039857 -171.634585722994 0.0
  endloop
endfacet
facet normal -0.000341488545445746 -0.000903831281124833 0.999999533237185
  outer loop
    vertex 26.4007593947672 -164.888775115086 0.0170520891745407
    vertex 32.1344760798457 -183.592843337168 0.0
    vertex 38.372878349215 -175.229655357363 0.0070258270614551
  endloop
endfacet
facet normal -0.000341488545445746 -0.000903831281124833 0.999999533237185
  outer loop
    vertex 38.372878349215 -175.229655357363 0.0070258270614551
    vertex 32.1344760798457 -183.592843337168 0.0
    vertex 33.2687419459259 -183.910616583522 -0.000266957992458236
  endloop
endfacet
facet normal -0.000341488545445746 -0.000903831281124833 0.999999533237185
  outer loop
    vertex 38.372878349215 -175.229655357363 0.0070258270614551
    vertex 33.2687419459259 -183.910616583522 -0.000266957992458236
    vertex 34.4449367245796 -183.974685312947 -0.000320781464330202
  endloop
endfacet
facet normal -0.000341488545445746 -0.000903831281124833 0.999999533237185
  outer loop
    vertex 38.372878349215 -175.229655357363 0.0070258270614551
    vertex 34.4449367245796 -183.974685312947 -0.000320781464330202
    vertex 35.6070080976684 -183.781996288966 -0.000158905423470511
  endloop
endfacet
facet normal -0.000341488545445746 -0.000903831281124833 0.999999533237185
  outer loop
    vertex 38.372878349215 -175.229655357363 0.0070258270614551
    vertex 35.6070080976684 -183.781996288966 -0.000158905423470511
    vertex 36.6995768070235 -183.341732230859 0.000210955823353004
  endloop
endfacet
facet normal -0.000341488545445746 -0.000903831281124833 0.999999533237185
  outer loop
    vertex 38.372878349215 -175.229655357363 0.0070258270614551
    vertex 36.6995768070235 -183.341732230859 0.000210955823353004
    vertex 37.6705757885867 -182.674874205283 0.000771176300706439
  endloop
endfacet
facet normal -0.000341488545445746 -0.000903831281124833 0.999999533237185
  outer loop
    vertex 38.372878349215 -175.229655357363 0.0070258270614551
    vertex 37.6705757885867 -182.674874205283 0.000771176300706439
    vertex 38.4737314618131 -181.813201760047 0.00149505834167766
  endloop
endfacet
facet normal -0.000341488545445746 -0.000903831281124833 0.999999533237185
  outer loop
    vertex 38.372878349215 -175.229655357363 0.0070258270614551
    vertex 38.4737314618131 -181.813201760047 0.00149505834167766
    vertex 39.0007388338573 -176.226314513294 0.00618854409164776
  endloop
endfacet
facet normal -0.000341488545445746 -0.000903831281124833 0.999999533237185
  outer loop
    vertex 39.0007388338573 -176.226314513294 0.00618854409164776
    vertex 38.4737314618131 -181.813201760047 0.00149505834167766
    vertex 39.0707689268924 -180.797778449342 0.00234810488235207
  endloop
endfacet
facet normal -0.000341488545445746 -0.000903831281124833 0.999999533237185
  outer loop
    vertex 39.0007388338573 -176.226314513294 0.00618854409164776
    vertex 39.0707689268924 -180.797778449342 0.00234810488235207
    vertex 39.3973662353205 -177.335469506294 0.00525675454154042
  endloop
endfacet
facet normal -0.000341488545445746 -0.000903831281124833 0.999999533237185
  outer loop
    vertex 39.3973662353205 -177.335469506294 0.00525675454154042
    vertex 39.0707689268924 -180.797778449342 0.00234810488235207
    vertex 39.4332359796993 -179.676994923671 0.00328966344156537
  endloop
endfacet
facet normal -0.000341488545445746 -0.000903831281124833 0.999999533237185
  outer loop
    vertex 39.3973662353205 -177.335469506294 0.00525675454154042
    vertex 39.4332359796993 -179.676994923671 0.00328966344156537
    vertex 39.5438590198682 -178.504262842297 0.00427486344102148
  endloop
endfacet
facet normal -0.000504377511035281 -0.00162798794938667 0.999998547628227
  outer loop
    vertex 16.1032542039857 -171.634585722994 0.0
    vertex 12.7708871684788 -154.069922048036 0.0272394103409846
    vertex 12.6085775041411 -154.167935276277 0.0272063835308002
  endloop
endfacet
facet normal -0.000234985112896083 -0.00158711675782825 0.999998712920369
  outer loop
    vertex 12.7708871684788 -154.069922048036 0.0272394103409846
    vertex 16.1032542039857 -171.634585722994 0.0
    vertex 12.946007566597 -153.997231837544 0.0272639042366278
  endloop
endfacet
facet normal -0.000234985112896083 -0.00158711675782825 0.999998712920369
  outer loop
    vertex 12.946007566597 -153.997231837544 0.0272639042366278
    vertex 16.1032542039857 -171.634585722994 0.0
    vertex 13.1300156736214 -153.951493041647 0.0272793165085964
  endloop
endfacet
facet normal -0.000234985112896083 -0.00158711675782825 0.999998712920369
  outer loop
    vertex 13.1300156736214 -153.951493041647 0.0272793165085964
    vertex 16.1032542039857 -171.634585722994 0.0
    vertex 13.3187893633537 -153.933730295029 0.027285301893135
  endloop
endfacet
facet normal -0.000234985112896083 -0.00158711675782825 0.999998712920369
  outer loop
    vertex 13.3187893633537 -153.933730295029 0.027285301893135
    vertex 16.1032542039857 -171.634585722994 0.0
    vertex 13.5080997516184 -153.944341516481 0.0272817263064208
  endloop
endfacet
facet normal -0.000234985112896083 -0.00158711675782825 0.999998712920369
  outer loop
    vertex 13.5080997516184 -153.944341516481 0.0272817263064208
    vertex 16.1032542039857 -171.634585722994 0.0
    vertex 13.6937059311874 -153.983088994769 0.0272686698482925
  endloop
endfacet
facet normal -0.000234985112896083 -0.00158711675782825 0.999998712920369
  outer loop
    vertex 13.6937059311874 -153.983088994769 0.0272686698482925
    vertex 16.1032542039857 -171.634585722994 0.0
    vertex 13.8714499760448 -154.049104713816 0.0272464250078635
  endloop
endfacet
facet normal -0.000234985112896083 -0.00158711675782825 0.999998712920369
  outer loop
    vertex 13.8714499760448 -154.049104713816 0.0272464250078635
    vertex 16.1032542039857 -171.634585722994 0.0
    vertex 14.0373500867159 -154.140909797884 0.0272154901112184
  endloop
endfacet
facet normal -0.000234985112896083 -0.00158711675782825 0.999998712920369
  outer loop
    vertex 14.0373500867159 -154.140909797884 0.0272154901112184
    vertex 16.1032542039857 -171.634585722994 0.0
    vertex 14.1876897900323 -154.256447641162 0.0271765581579754
  endloop
endfacet
facet normal -0.000234985112896083 -0.00158711675782825 0.999998712920369
  outer loop
    vertex 14.1876897900323 -154.256447641162 0.0271765581579754
    vertex 16.1032542039857 -171.634585722994 0.0
    vertex 14.3191011950915 -154.393129979588 0.027130501296797
  endloop
endfacet
facet normal -0.000234985112896083 -0.00158711675782825 0.999998712920369
  outer loop
    vertex 14.3191011950915 -154.393129979588 0.027130501296797
    vertex 16.1032542039857 -171.634585722994 0.0
    vertex 14.4286404403194 -154.547894872809 0.0270783512876263
  endloop
endfacet
facet normal -0.000504377511035281 -0.00162798794938667 0.999998547628227
  outer loop
    vertex 16.1032542039857 -171.634585722994 0.0
    vertex 12.4286404403194 -154.547894872809 0.0270783512876263
    vertex 12.3819210692565 -154.904497781918 0.0268539204707818
  endloop
endfacet
facet normal 0.00308741259397814 -0.000919099406366811 0.999994811556418
  outer loop
    vertex 12.4286404403194 -154.547894872809 0.0270783512876263
    vertex 16.1032542039857 -171.634585722994 0.0
    vertex 12.4627146140304 -154.2890758424 0.0271655636684736
  endloop
endfacet
facet normal 3.84031917848096e-05 -0.0016303818275865 0.999998670189261
  outer loop
    vertex 16.1032542039857 -171.634585722994 0.0
    vertex 7.50482808543171 -155.834981492953 0.0262683133034532
    vertex 6.17694645263825 -155.285933863251 0.0266138607035644
  endloop
endfacet
facet normal 3.84031917848096e-05 -0.0016303818275865 0.999998670189261
  outer loop
    vertex 7.50482808543171 -155.834981492953 0.0262683133034532
    vertex 16.1032542039857 -171.634585722994 0.0
    vertex 8.89679281991161 -156.017345936756 0.0261535408211094
  endloop
endfacet
facet normal 3.84031917848096e-05 -0.0016303818275865 0.999998670189261
  outer loop
    vertex 8.89679281991161 -156.017345936756 0.0261535408211094
    vertex 16.1032542039857 -171.634585722994 0.0
    vertex 10.9623358736551 -156.016045971412 0.026154358964475
  endloop
endfacet
facet normal 3.84031917848096e-05 -0.0016303818275865 0.999998670189261
  outer loop
    vertex 10.9623358736551 -156.016045971412 0.026154358964475
    vertex 16.1032542039857 -171.634585722994 0.0
    vertex 11.318879764517 -155.968877785156 0.02618404462964
  endloop
endfacet
facet normal 3.84031917848096e-05 -0.0016303818275865 0.999998670189261
  outer loop
    vertex 11.318879764517 -155.968877785156 0.02618404462964
    vertex 16.1032542039857 -171.634585722994 0.0
    vertex 11.6815971145769 -155.818367854053 0.0262787692265675
  endloop
endfacet
facet normal 3.84031917848096e-05 -0.0016303818275865 0.999998670189261
  outer loop
    vertex 11.6815971145769 -155.818367854053 0.0262787692265675
    vertex 16.1032542039857 -171.634585722994 0.0
    vertex 11.9930003262816 -155.579108284894 0.0264293490990352
  endloop
endfacet
facet normal 3.84031917848096e-05 -0.0016303818275865 0.999998670189261
  outer loop
    vertex 11.9930003262816 -155.579108284894 0.0264293490990352
    vertex 16.1032542039857 -171.634585722994 0.0
    vertex 12.2318677853715 -155.267404221924 0.0266255224776245
  endloop
endfacet
facet normal 3.84031917848096e-05 -0.0016303818275865 0.999998670189261
  outer loop
    vertex 12.2318677853715 -155.267404221924 0.0266255224776245
    vertex 16.1032542039857 -171.634585722994 0.0
    vertex 12.3819210692565 -154.904497781918 0.0268539204707818
  endloop
endfacet
facet normal -0.00312152225018627 -0.00231098802961597 0.999992457688141
  outer loop
    vertex 0.0720323281257231 -159.67632810882 0.0
    vertex 3.61024121453158 -151.945294486237 0.0287163181016626
    vertex -0.259011434562798 -154.480020428262 0.01115451203419
  endloop
endfacet
facet normal -0.00312152225018627 -0.00231098802961597 0.999992457688141
  outer loop
    vertex 3.61024121453158 -151.945294486237 0.0287163181016626
    vertex 0.0720323281257231 -159.67632810882 0.0
    vertex 4.16095994264788 -153.272483709599 0.0278810412319457
  endloop
endfacet
endsolid shade
